<?xml version="1.0" encoding="UTF-8" standalone="no"?>
<!DOCTYPE svg PUBLIC "-//W3C//DTD SVG 1.1//EN"
 "http://www.w3.org/Graphics/SVG/1.1/DTD/svg11.dtd">
<!-- Generated by graphviz version 2.43.0 (0)
 -->
<!-- Title: current_workflow_svg Pages: 1 -->
<svg width="2170pt" height="396pt"
 viewBox="0.00 0.00 2169.53 396.00" xmlns="http://www.w3.org/2000/svg" xmlns:xlink="http://www.w3.org/1999/xlink">
<g id="graph0" class="graph" transform="scale(1 1) rotate(0) translate(4 392)">
<title>current_workflow_svg</title>
<polygon fill="white" stroke="transparent" points="-4,4 -4,-392 2165.53,-392 2165.53,4 -4,4"/>
<text text-anchor="middle" x="1080.77" y="-374.4" font-family="Times,serif" font-size="12.00">Current Workflow — Residential &amp; Commercial (As‑Is)</text>
<g id="clust1" class="cluster">
<title>cluster_marketing</title>
<polygon fill="none" stroke="lightgrey" points="8,-164 8,-275 451.74,-275 451.74,-164 8,-164"/>
<text text-anchor="middle" x="229.87" y="-261.4" font-family="Times,serif" font-size="12.00">Marketing / BD (HubSpot, Email)</text>
</g>
<g id="clust2" class="cluster">
<title>cluster_intake</title>
<polygon fill="none" stroke="lightgrey" points="471.74,-174 471.74,-265 988.76,-265 988.76,-174 471.74,-174"/>
<text text-anchor="middle" x="730.25" y="-251.4" font-family="Times,serif" font-size="12.00">Intake (CIS Doc)</text>
</g>
<g id="clust3" class="cluster">
<title>cluster_dataentry</title>
<polygon fill="none" stroke="lightgrey" points="1008.76,-138 1008.76,-301 1266.59,-301 1266.59,-138 1008.76,-138"/>
<text text-anchor="middle" x="1137.68" y="-287.4" font-family="Times,serif" font-size="12.00">Manual Data Entry</text>
</g>
<g id="clust4" class="cluster">
<title>cluster_ops</title>
<polygon fill="none" stroke="lightgrey" points="1293.09,-268 1293.09,-359 1836.05,-359 1836.05,-268 1293.09,-268"/>
<text text-anchor="middle" x="1564.57" y="-345.4" font-family="Times,serif" font-size="12.00">Field Ops (MapMyCustomers)</text>
</g>
<g id="clust5" class="cluster">
<title>cluster_training</title>
<polygon fill="none" stroke="lightgrey" points="1309.99,-119 1309.99,-230 1826.86,-230 1826.86,-119 1309.99,-119"/>
<text text-anchor="middle" x="1568.43" y="-216.4" font-family="Times,serif" font-size="12.00">Training &amp; Onboarding</text>
</g>
<g id="clust6" class="cluster">
<title>cluster_orders</title>
<polygon fill="none" stroke="lightgrey" points="1286.59,-8 1286.59,-81 1840.35,-81 1840.35,-8 1286.59,-8"/>
<text text-anchor="middle" x="1563.47" y="-67.4" font-family="Times,serif" font-size="12.00">Orders (Shopify→Acumatica)</text>
</g>
<g id="clust7" class="cluster">
<title>cluster_reporting</title>
<polygon fill="none" stroke="lightgrey" points="1860.35,-30 1860.35,-193 2153.53,-193 2153.53,-30 1860.35,-30"/>
<text text-anchor="middle" x="2006.94" y="-179.4" font-family="Times,serif" font-size="12.00">Reporting &amp; Notifications</text>
</g>
<!-- LeadsGen -->
<g id="node1" class="node">
<title>LeadsGen</title>
<ellipse fill="none" stroke="black" cx="127.72" cy="-209" rx="111.95" ry="37.45"/>
<text text-anchor="middle" x="127.72" y="-220.3" font-family="Times,serif" font-size="14.00">Leads generated</text>
<text text-anchor="middle" x="127.72" y="-205.3" font-family="Times,serif" font-size="14.00">(Web, Trade Shows,</text>
<text text-anchor="middle" x="127.72" y="-190.3" font-family="Times,serif" font-size="14.00">Email Campaigns)</text>
</g>
<!-- Discovery -->
<g id="node2" class="node">
<title>Discovery</title>
<ellipse fill="none" stroke="black" cx="359.59" cy="-209" rx="84.29" ry="26.74"/>
<text text-anchor="middle" x="359.59" y="-212.8" font-family="Times,serif" font-size="14.00">Discovery Call</text>
<text text-anchor="middle" x="359.59" y="-197.8" font-family="Times,serif" font-size="14.00">scheduled</text>
</g>
<!-- LeadsGen&#45;&gt;Discovery -->
<g id="edge1" class="edge">
<title>LeadsGen&#45;&gt;Discovery</title>
<path fill="none" stroke="black" d="M239.62,-209C248.19,-209 256.79,-209 265.23,-209"/>
<polygon fill="black" stroke="black" points="265.43,-212.5 275.43,-209 265.43,-205.5 265.43,-212.5"/>
</g>
<!-- CIS_Send -->
<g id="node3" class="node">
<title>CIS_Send</title>
<ellipse fill="none" stroke="black" cx="585.68" cy="-209" rx="105.88" ry="18"/>
<text text-anchor="middle" x="585.68" y="-205.3" font-family="Times,serif" font-size="14.00">CIS sent to prospect</text>
</g>
<!-- Discovery&#45;&gt;CIS_Send -->
<g id="edge2" class="edge">
<title>Discovery&#45;&gt;CIS_Send</title>
<path fill="none" stroke="black" d="M444.03,-209C452.35,-209 460.89,-209 469.46,-209"/>
<polygon fill="black" stroke="black" points="469.52,-212.5 479.52,-209 469.52,-205.5 469.52,-212.5"/>
</g>
<!-- CIS_Return -->
<g id="node4" class="node">
<title>CIS_Return</title>
<ellipse fill="none" stroke="black" cx="854.19" cy="-209" rx="126.64" ry="26.74"/>
<text text-anchor="middle" x="854.19" y="-212.8" font-family="Times,serif" font-size="14.00">CIS returned via email</text>
<text text-anchor="middle" x="854.19" y="-197.8" font-family="Times,serif" font-size="14.00">(PDF/Attachment)</text>
</g>
<!-- CIS_Send&#45;&gt;CIS_Return -->
<g id="edge3" class="edge">
<title>CIS_Send&#45;&gt;CIS_Return</title>
<path fill="none" stroke="black" d="M691.63,-209C700.11,-209 708.75,-209 717.4,-209"/>
<polygon fill="black" stroke="black" points="717.56,-212.5 727.56,-209 717.56,-205.5 717.56,-212.5"/>
</g>
<!-- ManualEntryERP -->
<g id="node5" class="node">
<title>ManualEntryERP</title>
<ellipse fill="none" stroke="black" cx="1137.68" cy="-245" rx="118.17" ry="26.74"/>
<text text-anchor="middle" x="1137.68" y="-248.8" font-family="Times,serif" font-size="14.00">Manual entry to ERP</text>
<text text-anchor="middle" x="1137.68" y="-233.8" font-family="Times,serif" font-size="14.00">(Acumatica)</text>
</g>
<!-- CIS_Return&#45;&gt;ManualEntryERP -->
<g id="edge4" class="edge">
<title>CIS_Return&#45;&gt;ManualEntryERP</title>
<path fill="none" stroke="black" d="M963.22,-222.82C983.24,-225.38 1004.21,-228.06 1024.36,-230.64"/>
<polygon fill="black" stroke="black" points="1024.13,-234.13 1034.49,-231.93 1025.02,-227.19 1024.13,-234.13"/>
</g>
<!-- ManualEntryCRM -->
<g id="node6" class="node">
<title>ManualEntryCRM</title>
<ellipse fill="none" stroke="black" cx="1137.68" cy="-173" rx="120.83" ry="26.74"/>
<text text-anchor="middle" x="1137.68" y="-176.8" font-family="Times,serif" font-size="14.00">Manual entry to CRM</text>
<text text-anchor="middle" x="1137.68" y="-161.8" font-family="Times,serif" font-size="14.00">(MS Dynamics)</text>
</g>
<!-- CIS_Return&#45;&gt;ManualEntryCRM -->
<g id="edge5" class="edge">
<title>CIS_Return&#45;&gt;ManualEntryCRM</title>
<path fill="none" stroke="black" d="M963.22,-195.18C982.49,-192.72 1002.63,-190.14 1022.09,-187.66"/>
<polygon fill="black" stroke="black" points="1022.71,-191.1 1032.19,-186.36 1021.82,-184.16 1022.71,-191.1"/>
</g>
<!-- ManualReports -->
<g id="node13" class="node">
<title>ManualReports</title>
<ellipse fill="none" stroke="black" cx="2006.94" cy="-137" rx="138.69" ry="26.74"/>
<text text-anchor="middle" x="2006.94" y="-140.8" font-family="Times,serif" font-size="14.00">Manual report builds</text>
<text text-anchor="middle" x="2006.94" y="-125.8" font-family="Times,serif" font-size="14.00">(Dynamics vs Acumatica)</text>
</g>
<!-- ManualEntryERP&#45;&gt;ManualReports -->
<g id="edge14" class="edge">
<title>ManualEntryERP&#45;&gt;ManualReports</title>
<path fill="none" stroke="black" stroke-dasharray="5,2" d="M1253.56,-250.25C1423.55,-256.82 1733.51,-263.89 1840.35,-234 1886.44,-221.1 1932.95,-192.13 1964.89,-169.19"/>
<polygon fill="black" stroke="black" points="1967.09,-171.93 1973.1,-163.2 1962.96,-166.27 1967.09,-171.93"/>
</g>
<!-- MMC_Map -->
<g id="node7" class="node">
<title>MMC_Map</title>
<ellipse fill="none" stroke="black" cx="1417.43" cy="-298" rx="116.18" ry="18"/>
<text text-anchor="middle" x="1417.43" y="-294.3" font-family="Times,serif" font-size="14.00">Map &amp; Route Planning</text>
</g>
<!-- ManualEntryCRM&#45;&gt;MMC_Map -->
<g id="edge6" class="edge">
<title>ManualEntryCRM&#45;&gt;MMC_Map</title>
<path fill="none" stroke="black" d="M1228.85,-190.67C1242.12,-195.42 1255.15,-201.42 1266.59,-209 1278.45,-216.86 1275.5,-225.09 1286.59,-234 1308.9,-251.93 1337.06,-266.57 1361.44,-277.3"/>
<polygon fill="black" stroke="black" points="1360.36,-280.65 1370.93,-281.37 1363.12,-274.21 1360.36,-280.65"/>
</g>
<!-- TrainingSched -->
<g id="node9" class="node">
<title>TrainingSched</title>
<ellipse fill="none" stroke="black" cx="1417.43" cy="-170" rx="99.38" ry="18"/>
<text text-anchor="middle" x="1417.43" y="-166.3" font-family="Times,serif" font-size="14.00">Training scheduled</text>
</g>
<!-- ManualEntryCRM&#45;&gt;TrainingSched -->
<g id="edge8" class="edge">
<title>ManualEntryCRM&#45;&gt;TrainingSched</title>
<path fill="none" stroke="black" d="M1258.49,-171.71C1274.9,-171.53 1291.68,-171.35 1307.88,-171.17"/>
<polygon fill="black" stroke="black" points="1307.92,-174.67 1317.88,-171.06 1307.84,-167.67 1307.92,-174.67"/>
</g>
<!-- ManualEntryCRM&#45;&gt;ManualReports -->
<g id="edge11" class="edge">
<title>ManualEntryCRM&#45;&gt;ManualReports</title>
<path fill="none" stroke="black" d="M1187.62,-148.47C1215.79,-135.72 1252.31,-121.48 1286.59,-115 1496.71,-75.28 1747.38,-98.5 1890.48,-118.26"/>
<polygon fill="black" stroke="black" points="1890.21,-121.75 1900.6,-119.67 1891.18,-114.82 1890.21,-121.75"/>
</g>
<!-- MMC_Notes -->
<g id="node8" class="node">
<title>MMC_Notes</title>
<ellipse fill="none" stroke="black" cx="1704.31" cy="-303" rx="123.99" ry="26.74"/>
<text text-anchor="middle" x="1704.31" y="-306.8" font-family="Times,serif" font-size="14.00">Voice Notes synced as</text>
<text text-anchor="middle" x="1704.31" y="-291.8" font-family="Times,serif" font-size="14.00">CRM Notes only</text>
</g>
<!-- MMC_Map&#45;&gt;MMC_Notes -->
<g id="edge7" class="edge">
<title>MMC_Map&#45;&gt;MMC_Notes</title>
<path fill="none" stroke="black" d="M1533.07,-300.01C1545.39,-300.23 1558,-300.45 1570.51,-300.67"/>
<polygon fill="black" stroke="black" points="1570.46,-304.17 1580.52,-300.84 1570.58,-297.17 1570.46,-304.17"/>
</g>
<!-- MMC_Notes&#45;&gt;ManualReports -->
<g id="edge15" class="edge">
<title>MMC_Notes&#45;&gt;ManualReports</title>
<path fill="none" stroke="black" stroke-dasharray="5,2" d="M1787.81,-282.99C1805.6,-277.3 1823.97,-270.33 1840.35,-262 1888.88,-237.3 1937.85,-198.18 1969.8,-170.28"/>
<polygon fill="black" stroke="black" points="1972.37,-172.69 1977.55,-163.45 1967.74,-167.44 1972.37,-172.69"/>
</g>
<!-- TrainingDone -->
<g id="node10" class="node">
<title>TrainingDone</title>
<ellipse fill="none" stroke="black" cx="1704.31" cy="-164" rx="114.6" ry="37.45"/>
<text text-anchor="middle" x="1704.31" y="-175.3" font-family="Times,serif" font-size="14.00">Training completed</text>
<text text-anchor="middle" x="1704.31" y="-160.3" font-family="Times,serif" font-size="14.00">(tracked as free&#45;text</text>
<text text-anchor="middle" x="1704.31" y="-145.3" font-family="Times,serif" font-size="14.00">notes in CRM)</text>
</g>
<!-- TrainingSched&#45;&gt;TrainingDone -->
<g id="edge9" class="edge">
<title>TrainingSched&#45;&gt;TrainingDone</title>
<path fill="none" stroke="black" d="M1516.47,-167.94C1536.9,-167.5 1558.67,-167.05 1579.88,-166.6"/>
<polygon fill="black" stroke="black" points="1579.98,-170.1 1589.9,-166.39 1579.83,-163.1 1579.98,-170.1"/>
</g>
<!-- TrainingDone&#45;&gt;ManualReports -->
<g id="edge16" class="edge">
<title>TrainingDone&#45;&gt;ManualReports</title>
<path fill="none" stroke="black" stroke-dasharray="5,2" d="M1815.12,-154.14C1833.25,-152.51 1852.23,-150.81 1870.89,-149.13"/>
<polygon fill="black" stroke="black" points="1871.26,-152.61 1880.91,-148.23 1870.64,-145.64 1871.26,-152.61"/>
</g>
<!-- ShopifyOrder -->
<g id="node11" class="node">
<title>ShopifyOrder</title>
<ellipse fill="none" stroke="black" cx="1417.43" cy="-34" rx="122.68" ry="18"/>
<text text-anchor="middle" x="1417.43" y="-30.3" font-family="Times,serif" font-size="14.00">Initial Order via Shopify</text>
</g>
<!-- ERPUpdate -->
<g id="node12" class="node">
<title>ERPUpdate</title>
<ellipse fill="none" stroke="black" cx="1704.31" cy="-34" rx="128.08" ry="18"/>
<text text-anchor="middle" x="1704.31" y="-30.3" font-family="Times,serif" font-size="14.00">Order flows to Acumatica</text>
</g>
<!-- ShopifyOrder&#45;&gt;ERPUpdate -->
<g id="edge10" class="edge">
<title>ShopifyOrder&#45;&gt;ERPUpdate</title>
<path fill="none" stroke="black" d="M1540.49,-34C1548.95,-34 1557.52,-34 1566.06,-34"/>
<polygon fill="black" stroke="black" points="1566.06,-37.5 1576.06,-34 1566.06,-30.5 1566.06,-37.5"/>
</g>
<!-- ERPUpdate&#45;&gt;ManualReports -->
<g id="edge12" class="edge">
<title>ERPUpdate&#45;&gt;ManualReports</title>
<path fill="none" stroke="black" d="M1759.96,-50.27C1785.26,-58.89 1815.2,-70.67 1840.35,-85 1850.24,-90.64 1850.14,-95.96 1860.35,-101 1871.7,-106.6 1883.99,-111.38 1896.45,-115.43"/>
<polygon fill="black" stroke="black" points="1895.41,-118.77 1906,-118.4 1897.49,-112.09 1895.41,-118.77"/>
</g>
<!-- EmailNotifs -->
<g id="node14" class="node">
<title>EmailNotifs</title>
<ellipse fill="none" stroke="black" cx="2006.94" cy="-65" rx="113.69" ry="26.74"/>
<text text-anchor="middle" x="2006.94" y="-68.8" font-family="Times,serif" font-size="14.00">Email&#45;based tasking</text>
<text text-anchor="middle" x="2006.94" y="-53.8" font-family="Times,serif" font-size="14.00">(Reply&#45;All threads)</text>
</g>
<!-- ERPUpdate&#45;&gt;EmailNotifs -->
<g id="edge13" class="edge">
<title>ERPUpdate&#45;&gt;EmailNotifs</title>
<path fill="none" stroke="black" d="M1807.93,-44.58C1835.05,-47.38 1864.47,-50.41 1892.15,-53.27"/>
<polygon fill="black" stroke="black" points="1891.95,-56.76 1902.25,-54.31 1892.66,-49.8 1891.95,-56.76"/>
</g>
</g>
</svg>
